<svg width="20" height="20" viewBox="0 0 20 20" fill="none" xmlns="http://www.w3.org/2000/svg">
<g id="circle-check-regular 1" clip-path="url(#clip0_143_47)">
<path id="Vector" d="M10 2.28125C12.0471 2.28125 14.0104 3.09447 15.458 4.54202C16.9055 5.98957 17.7188 7.95286 17.7188 10C17.7188 12.0471 16.9055 14.0104 15.458 15.458C14.0104 16.9055 12.0471 17.7188 10 17.7188C7.95286 17.7188 5.98957 16.9055 4.54202 15.458C3.09447 14.0104 2.28125 12.0471 2.28125 10C2.28125 7.95286 3.09447 5.98957 4.54202 4.54202C5.98957 3.09447 7.95286 2.28125 10 2.28125ZM10 19.5C12.5196 19.5 14.9359 18.4991 16.7175 16.7175C18.4991 14.9359 19.5 12.5196 19.5 10C19.5 7.48044 18.4991 5.06408 16.7175 3.28249C14.9359 1.50089 12.5196 0.5 10 0.5C7.48044 0.5 5.06408 1.50089 3.28249 3.28249C1.50089 5.06408 0.5 7.48044 0.5 10C0.5 12.5196 1.50089 14.9359 3.28249 16.7175C5.06408 18.4991 7.48044 19.5 10 19.5ZM14.1934 8.25586C14.5422 7.90703 14.5422 7.34297 14.1934 6.99785C13.8445 6.65273 13.2805 6.64902 12.9354 6.99785L8.81621 11.117L7.07207 9.37285C6.72324 9.02402 6.15918 9.02402 5.81406 9.37285C5.46895 9.72168 5.46523 10.2857 5.81406 10.6309L8.18906 13.0059C8.53789 13.3547 9.10195 13.3547 9.44707 13.0059L14.1934 8.25586Z" fill="#1FCD45"/>
</g>
<defs>
<clipPath id="clip0_143_47">
<rect width="19" height="19" fill="white" transform="translate(0.5 0.5)"/>
</clipPath>
</defs>
</svg>
